<svg width="49" height="48" viewBox="0 0 49 48" fill="none" xmlns="http://www.w3.org/2000/svg">
<rect x="1.24645" y="0.319756" width="47.3238" height="47.3238" rx="0.959267" fill="#F7F7F7"/>
<rect x="4.12424" y="2.55804" width="41.1792" height="7.62395" rx="0.959267" fill="#D9D9D9"/>
<rect x="4.12424" y="12.7401" width="18.8656" height="1.27902" rx="0.639511" fill="#D9D9D9"/>
<rect x="4.12424" y="15.2981" width="18.8656" height="1.27902" rx="0.639511" fill="#D9D9D9"/>
<rect x="4.12424" y="17.8561" width="18.8656" height="1.27902" rx="0.639511" fill="#D9D9D9"/>
<rect x="26.8269" y="12.7401" width="18.8656" height="6.39511" rx="0.959267" fill="#D9D9D9"/>
<rect x="4.12424" y="21.6932" width="18.5462" height="8.88596" rx="0.639511" fill="#C18BFE"/>
<rect x="27.1467" y="21.6932" width="18.5458" height="1.27902" rx="0.639511" fill="#D9D9D9"/>
<rect x="27.1467" y="24.2513" width="18.5458" height="1.27902" rx="0.639511" fill="#D9D9D9"/>
<rect x="27.1467" y="26.8093" width="18.5458" height="1.27902" rx="0.639511" fill="#D9D9D9"/>
<rect x="27.1467" y="29.3673" width="18.5458" height="1.27902" rx="0.639511" fill="#D9D9D9"/>
<rect x="4.12424" y="33.2044" width="18.8656" height="1.27902" rx="0.639511" fill="#D9D9D9"/>
<rect x="4.12424" y="35.7625" width="18.8656" height="1.27902" rx="0.639511" fill="#D9D9D9"/>
<rect x="4.12424" y="38.3205" width="18.8656" height="1.27902" rx="0.639511" fill="#D9D9D9"/>
<rect x="4.12424" y="40.8785" width="18.8656" height="1.27902" rx="0.639511" fill="#D9D9D9"/>
<rect x="4.12424" y="43.4366" width="18.8656" height="1.27902" rx="0.639511" fill="#D9D9D9"/>
<rect x="26.8269" y="33.2044" width="18.8656" height="11.5112" rx="0.959267" fill="#D9D9D9"/>
<rect x="1.24645" y="0.319756" width="47.3238" height="47.3238" rx="0.959267" stroke="#E3E3E3" stroke-width="0.639511"/>
</svg>
