<svg width="1210" height="151" viewBox="0 0 1210 151" fill="none" xmlns="http://www.w3.org/2000/svg">
<path d="M117.055 138.5H96.3984L34.2468 44.4572V138.5H13.59V12.3848H34.2468L96.3984 106.246V12.3848H117.055V138.5ZM161.214 29.2364V66.2012H204.702V83.0528H161.214V121.648H210.138V138.5H140.557V12.3848H210.138V29.2364H161.214ZM395.943 12.566L358.616 138.5H335.241L308.786 43.1888L280.7 138.5L257.506 138.681L221.81 12.566H243.735L269.828 115.125L298.095 12.566H321.289L347.563 114.582L373.837 12.566H395.943ZM450.851 139.768C442.395 139.768 434.785 138.319 428.02 135.42C421.255 132.4 415.94 128.172 412.074 122.736C408.209 117.3 406.276 110.958 406.276 103.71H428.382C428.865 109.146 430.979 113.615 434.724 117.118C438.59 120.622 443.965 122.373 450.851 122.373C457.978 122.373 463.535 120.682 467.521 117.3C471.508 113.796 473.501 109.327 473.501 103.891C473.501 99.6628 472.233 96.22 469.696 93.5624C467.28 90.9048 464.199 88.8512 460.455 87.4016C456.831 85.952 451.757 84.3816 445.234 82.6904C437.019 80.516 430.315 78.3416 425.121 76.1672C420.047 73.872 415.698 70.3688 412.074 65.6576C408.45 60.9464 406.638 54.6648 406.638 46.8128C406.638 39.5648 408.45 33.2228 412.074 27.7868C415.698 22.3508 420.772 18.1832 427.295 15.284C433.818 12.3848 441.368 10.9352 449.945 10.9352C462.146 10.9352 472.112 14.0156 479.843 20.1764C487.695 26.2164 492.044 34.5516 492.889 45.182H470.058C469.696 40.5916 467.521 36.6656 463.535 33.404C459.549 30.1424 454.294 28.5116 447.771 28.5116C441.851 28.5116 437.019 30.0216 433.275 33.0416C429.53 36.0616 427.657 40.4104 427.657 46.088C427.657 49.9536 428.805 53.1548 431.1 55.6916C433.516 58.1076 436.536 60.0404 440.16 61.49C443.784 62.9396 448.737 64.51 455.019 66.2012C463.354 68.4964 470.119 70.7916 475.313 73.0868C480.628 75.382 485.098 78.9456 488.722 83.7776C492.467 88.4888 494.339 94.8308 494.339 102.804C494.339 109.206 492.587 115.246 489.084 120.924C485.702 126.601 480.689 131.192 474.045 134.695C467.521 138.077 459.79 139.768 450.851 139.768ZM535.746 121.83H578.328V138.5H515.089V12.566H535.746V121.83ZM612.636 29.2364V66.2012H656.124V83.0528H612.636V121.648H661.56V138.5H591.979V12.3848H661.56V29.2364H612.636ZM764.738 12.566V29.4176H731.216V138.5H710.559V29.4176H676.856V12.566H764.738ZM863.393 12.566V29.4176H829.871V138.5H809.214V29.4176H775.511V12.566H863.393ZM901.345 29.2364V66.2012H944.833V83.0528H901.345V121.648H950.269V138.5H880.689V12.3848H950.269V29.2364H901.345ZM1037.5 138.5L1008.51 88.1264H992.745V138.5H972.088V12.566H1015.58C1025.24 12.566 1033.39 14.2572 1040.04 17.6396C1046.8 21.022 1051.82 25.552 1055.08 31.2296C1058.46 36.9072 1060.15 43.2492 1060.15 50.2556C1060.15 58.47 1057.74 65.9596 1052.9 72.7244C1048.19 79.3684 1040.88 83.8984 1030.98 86.3144L1062.14 138.5H1037.5ZM992.745 71.6372H1015.58C1023.31 71.6372 1029.11 69.7044 1032.97 65.8388C1036.96 61.9732 1038.95 56.7788 1038.95 50.2556C1038.95 43.7324 1037.02 38.6588 1033.15 35.0348C1029.29 31.29 1023.43 29.4176 1015.58 29.4176H992.745V71.6372Z" fill="white"/>
<path d="M1114.7 80.2443L1164.55 12.0239L1199.88 1.25311L1129.91 99.7267L1114.7 80.2443ZM1129.9 99.7267L1102.9 140.379H1073L1114.69 80.0735" fill="url(#paint0_linear_1101_2)"/>
<path d="M1152.26 109.098L1082.29 10.6277H1112.19L1167.47 89.6188L1152.26 109.098ZM1167.46 89.4548L1209.16 149.747L1173.83 141.668L1152.26 109.095" fill="url(#paint1_linear_1101_2)"/>
<defs>
<linearGradient id="paint0_linear_1101_2" x1="1073" y1="70.8161" x2="1199.88" y2="70.8161" gradientUnits="userSpaceOnUse">
<stop stop-color="#25E9A6"/>
<stop offset="0.485" stop-color="#55C0F0"/>
<stop offset="1" stop-color="#55C0F0"/>
</linearGradient>
<linearGradient id="paint1_linear_1101_2" x1="1082.29" y1="80.1873" x2="1209.16" y2="80.1873" gradientUnits="userSpaceOnUse">
<stop stop-color="#F0555D"/>
<stop offset="0.412" stop-color="#F0555D"/>
<stop offset="1" stop-color="#A225E9"/>
</linearGradient>
</defs>
</svg>
